Coordinates
version=1
nRows=19
nColumns=36
inDegrees=yes

Units are S.I. units (second, meters, Newtons, ...)
If the header above contains a line with 'inDegrees', this indicates whether rotational values are in degrees (yes) or radians (no).

endheader
time	pelvis_tilt	pelvis_list	pelvis_rotation	pelvis_tx	pelvis_ty	pelvis_tz	hip_flexion_r	hip_adduction_r	hip_rotation_r	knee_angle_r	knee_angle_r_beta	ankle_angle_r	subtalar_angle_r	mtp_angle_r	hip_flexion_l	hip_adduction_l	hip_rotation_l	knee_angle_l	knee_angle_l_beta	ankle_angle_l	subtalar_angle_l	mtp_angle_l	lumbar_extension	lumbar_bending	lumbar_rotation	arm_flex_r	arm_add_r	arm_rot_r	elbow_flex_r	pro_sup_r	arm_flex_l	arm_add_l	arm_rot_l	elbow_flex_l	pro_sup_l
      2.41000000	    -15.93440089	     -4.69151939	     -3.89257379	     -0.36178127	      0.60688685	     -0.58269862	     85.93143497	     -1.85893768	      0.01982719	    101.90905210	      1.77864850	     27.42119667	    -16.69056493	     -7.10430838	     88.88200539	     -6.69511518	     10.70550167	    104.33841451	      1.82104887	     30.75195264	     -6.41082130	     -7.10430838	    -35.84345113	      4.21668420	      0.50855154	     10.68487917	    -31.53206019	      5.48884299	     79.48689024	    112.82302540	     -2.51042843	    -15.47999345	     -7.03670685	     63.71975321	     87.05332885
      2.42000000	    -16.79555245	     -4.50480803	     -3.88929355	     -0.36018603	      0.59924306	     -0.58291257	     87.58239159	     -2.40514103	      0.01478807	    103.12785844	      1.79992068	     27.92315505	    -16.27005072	     -7.10941591	     90.50267437	     -6.67697176	     10.54386519	    105.46994329	      1.84079777	     31.18737695	     -6.17298613	     -7.10941591	    -36.48394539	      4.01724747	      0.40086197	     10.20410021	    -31.53825299	      6.31320578	     76.39719666	    112.66481872	     -3.36630309	    -15.32841529	     -6.98704579	     60.24036842	     86.65182317
      2.43000000	    -17.58294825	     -4.27662581	     -3.77863400	     -0.35864297	      0.59252407	     -0.58347730	     89.02256247	     -2.97674216	      0.19771134	    104.21701237	      1.81893000	     29.20517610	    -14.81785953	     -7.14211336	     91.95919572	     -6.56687845	     10.29515238	    106.46539158	      1.85817162	     31.67748958	     -5.60893559	     -7.14211336	    -37.15354392	      3.90908273	     -0.48648801	     10.72394385	    -31.55080027	      8.86653757	     72.69187187	    112.51341432	     -4.81720655	    -15.27623569	     -7.27964721	     57.18533138	     86.21680735
      2.44000000	    -18.60572470	     -4.09982974	     -3.63832950	     -0.35729845	      0.58620455	     -0.58411425	     90.64103783	     -3.48963844	      0.34894013	    105.10889164	      1.83449623	     29.49892988	    -14.71405264	     -7.14589782	     93.61683660	     -6.41550885	     10.11534321	    107.27226815	      1.87225428	     31.86819176	     -5.47368142	     -7.14589782	    -37.53815443	      3.82044749	     -0.48017611	      9.61955610	    -31.49580617	      9.33032365	     69.99309376	    112.40777008	     -5.62931132	    -14.88367101	     -7.44361145	     54.29594395	     85.86862701
      2.45000000	    -19.19770632	     -4.06663891	     -3.55775067	     -0.35575631	      0.58177361	     -0.58477401	     91.61052694	     -3.83496599	      0.40302926	    105.80026897	      1.84656304	     29.98178888	    -14.14247700	     -7.15497920	     94.61924097	     -6.36852552	     10.11262011	    107.95162134	      1.88411123	     32.19258646	     -5.04238891	     -7.15497920	    -38.27438064	      3.86290976	     -0.53970734	      9.21057814	    -31.33117896	     10.63663969	     66.85324965	    112.48512412	     -5.96149656	    -14.51881826	     -7.06410465	     50.20511959	     85.46081264
      2.46000000	    -19.87759386	     -3.99571338	     -3.40558693	     -0.35406370	      0.57819944	     -0.58544073	     92.52924997	     -4.08067016	      0.63723494	    106.36226062	      1.85637165	     30.34606918	    -13.92793329	     -7.16035976	     95.55976899	     -6.29834487	     10.01210037	    108.39844214	      1.89190972	     32.55009174	     -4.70435957	     -7.16035976	    -38.83865219	      3.88633770	     -0.39464131	      8.39254392	    -30.95059783	     11.35961702	     63.60643683	    112.47743725	     -6.13407818	    -13.90437823	     -7.28727828	     46.59518716	     85.05843424
      2.47000000	    -20.43501605	     -3.91588913	     -3.21624234	     -0.35222617	      0.57577694	     -0.58619720	     93.18575044	     -4.41755580	      0.80399357	    106.75288013	      1.86318924	     30.68236628	    -13.71242223	     -7.16475805	     96.24979861	     -6.30892472	      9.77186502	    108.70374386	      1.89723824	     32.87344664	     -4.21121166	     -7.16475805	    -39.38462074	      3.91821761	     -0.14606725	      7.62275332	    -30.36346252	     12.14316488	     60.09988878	    112.43908624	     -5.95647073	    -13.18954375	     -7.62398847	     42.82700040	     84.61973287
      2.48000000	    -20.99402033	     -3.95449785	     -3.09138123	     -0.35031444	      0.57428561	     -0.58674820	     93.69529017	     -4.69139611	      0.77149911	    106.96832267	      1.86694943	     31.09592340	    -13.24691094	     -7.17401391	     96.87598477	     -6.54014688	      9.55099311	    108.92828509	      1.90115722	     33.40788446	     -3.33723542	     -7.17401391	    -39.75352772	      4.11710925	     -0.24340285	      7.62863012	    -29.51389530	     13.73211502	     56.23869241	    112.54502591	     -5.60247235	    -12.55069745	     -7.69622097	     37.96262788	     84.14228289
      2.49000000	    -21.49688820	     -4.05935012	     -2.97706944	     -0.34834147	      0.57389356	     -0.58710741	     93.94735401	     -4.84601580	      0.67655437	    107.00623780	      1.86761117	     31.54753782	    -12.93482208	     -7.26271886	     97.30794648	     -6.72627820	      9.47299038	    109.00564183	      1.90250735	     34.17283142	     -2.13449101	     -7.26271886	    -39.99954542	      4.31760657	     -0.58976837	      8.65101594	    -28.59228148	     17.29730420	     51.07671732	    111.34747218	     -5.42900743	    -12.05014365	     -7.16067872	     34.04463777	     81.01487831
      2.50000000	    -21.89981455	     -4.03499342	     -2.82003593	     -0.34632624	      0.57467336	     -0.58721293	     94.03405868	     -4.97889437	      0.67128769	    106.90358347	      1.86581951	     31.71711379	    -13.03399187	     -7.30962394	     97.44662088	     -6.71495039	      9.27694235	    108.85383928	      1.89985790	     34.21161691	     -2.15755560	     -7.30962394	    -40.20948710	      4.37708917	     -0.66000613	      9.20069661	    -27.17709802	     19.26051822	     45.94169002	    111.92158098	     -4.45257746	    -11.34922664	     -7.92331045	     29.44101349	     79.19934226
      2.51000000	    -22.03974666	     -3.88564518	     -2.66005761	     -0.34424197	      0.57697661	     -0.58694432	     93.74474941	     -5.02544208	      0.78379648	    106.67268063	      1.86178950	     31.86640007	    -13.30060170	     -7.31267984	     97.09338007	     -6.67658715	      8.97205572	    108.50968878	      1.89385134	     34.17980639	     -2.47867561	     -7.31267984	    -40.65030789	      4.22677467	     -0.35000069	      9.28168389	    -25.29010177	     19.24136286	     40.96189324	    111.79772429	     -3.07810631	    -10.76147765	     -9.20319613	     25.50114771	     78.98598522
      2.52000000	    -22.28246781	     -3.60989694	     -2.38847514	     -0.34231033	      0.58008830	     -0.58676743	     93.51415768	     -5.10407642	      1.07193511	    106.29895549	      1.85526676	     31.71621504	    -13.72099817	     -7.32826699	     96.67449440	     -6.42057456	      8.54258340	    107.92619828	      1.88366751	     34.00881429	     -2.89828558	     -7.32826699	    -40.65869015	      4.13838080	     -1.45681664	     11.55857764	    -23.47050940	     24.14797126	     34.14306417	    112.28138644	     -1.99088552	    -10.66756382	     -8.81555728	     20.45684873	     79.65435979
      2.53000000	    -22.29579952	     -3.39350817	     -2.21228503	     -0.34029710	      0.58433611	     -0.58619658	     92.90913586	     -4.91316827	      1.36641084	    105.80549374	      1.84665423	     31.81333744	    -14.10257372	     -7.33122089	     95.90004035	     -6.26044832	      8.25835122	    107.26302308	      1.87209292	     34.17228805	     -3.03630129	     -7.33122089	    -40.96608021	      3.85804773	     -1.01080948	     11.57288973	    -21.76059473	     24.11776188	     29.83769065	    111.89356397	     -0.37160974	    -10.43071579	     -9.77621293	     18.15241145	     79.22717305
      2.54000000	    -22.38633331	     -3.21959660	     -2.11652991	     -0.33834201	      0.58955962	     -0.58556864	     92.24898549	     -4.56347546	      1.64563132	    105.04138313	      1.83331799	     31.57181152	    -14.66644125	     -7.33543638	     95.08675089	     -6.12505511	      8.07664826	    106.39917169	      1.85701587	     34.16463986	     -3.22761506	     -7.33543638	    -41.01586506	      3.61807241	     -1.05917317	     12.35288887	    -19.89044297	     24.68817163	     25.47385512	    111.51010738	      1.06209736	    -10.30730959	    -10.42486796	     16.39102176	     78.54328364
      2.55000000	    -22.09016508	     -2.97992852	     -1.90002400	     -0.33612434	      0.59625413	     -0.58533938	     91.06434086	     -4.40132564	      1.98430142	    104.21831486	      1.81895274	     31.51820263	    -15.07499323	     -7.33730318	     93.73715758	     -5.85488572	      7.79508786	    105.40472085	      1.83965943	     34.09517634	     -3.32903598	     -7.33730318	    -41.49698231	      3.30969770	     -0.68801473	     12.33869216	    -18.81666144	     25.06351515	     23.27289966	    111.32366283	      2.46348618	    -10.34504392	    -10.49831598	     16.93699989	     78.29006492
      2.56000000	    -21.98033842	     -2.77438705	     -1.57194188	     -0.33381275	      0.60326862	     -0.58551000	     89.97211549	     -4.40963560	      2.24773620	    103.24729843	      1.80200530	     31.37733916	    -15.57070114	     -7.33917434	     92.52632233	     -5.42595034	      7.52362915	    104.27763469	      1.81998806	     33.99396568	     -3.53905394	     -7.33917434	    -41.50933082	      3.17399514	     -0.59837177	     12.64640922	    -17.70388997	     25.16476507	     20.97625892	    111.05017763	      3.87594698	    -10.47180908	    -10.60846386	     17.81251042	     78.04088823
      2.57000000	    -22.19735631	     -2.68962814	     -1.14186396	     -0.33154760	      0.60996969	     -0.58606773	     89.16686639	     -4.57375258	      2.36215709	    102.20464565	      1.78380758	     31.14642006	    -16.07819271	     -7.34121556	     91.69304540	     -4.84227570	      7.37355280	    103.07656264	      1.79902540	     33.77981328	     -3.86777860	     -7.34121556	    -40.93409536	      3.30891943	     -0.78081176	     13.09146995	    -16.77901939	     25.14411413	     19.20342351	    110.68849040	      5.20076250	    -10.61770730	    -10.75819971	     19.03130045	     77.82599097
      2.58000000	    -22.46821052	     -2.65737493	     -0.71137026	     -0.32920722	      0.61700182	     -0.58662343	     88.35417918	     -4.78117959	      2.39298688	    101.08498520	      1.76426582	     30.88955479	    -16.46869478	     -7.34317726	     90.87433956	     -4.27113662	      7.29336469	    101.79994171	      1.77674416	     33.48815137	     -4.21522103	     -7.34317726	    -40.11927151	      3.55628597	     -1.10701966	     13.60358357	    -16.18502514	     25.02149386	     18.48732296	    110.26666985	      6.61697482	    -10.80753234	    -10.94735293	     20.39598037	     77.68466265
      2.59000000	    -22.45710117	     -2.60159978	     -0.29669592	     -0.32651050	      0.62521864	     -0.58676111	     87.14512212	     -4.98380490	      2.35637104	     99.84857690	      1.74268642	     30.68161622	    -16.76780067	     -7.34479338	     89.63040083	     -3.79083141	      7.23213607	    100.38426899	      1.75203601	     33.21168206	     -4.47730398	     -7.34479338	    -39.49252680	      3.72571326	     -1.51569536	     14.23354412	    -15.83082893	     24.73814536	     18.54758115	    109.84885838	      8.28484950	    -11.12316985	    -10.95963556	     21.92274501	     77.63979778
